<svg xmlns="http://www.w3.org/2000/svg" fill="none" viewBox="0 0 1226 632">
  <path fill="#FFF8F7" d="M0 0h1226v632H0z" />
  <path fill="#26453D"
    d="M460.917 320.592a15.09 15.09 0 0 1 4.475 4.758c1.141 1.911 1.719 4.149 1.719 6.728 0 3.098-.652 5.721-1.956 7.855-1.304 2.134-3.171 3.824-5.617 5.054-2.578 1.319-5.557 2.252-8.936 2.801-3.365.548-7.337.815-11.901.815H407v-3.35c.889-.089 2.016-.222 3.364-.385 1.349-.178 2.297-.37 2.846-.608 1.067-.429 1.793-.993 2.178-1.704.386-.697.578-1.615.578-2.727v-43.023c0-1.038-.163-1.897-.474-2.579-.311-.682-1.082-1.29-2.282-1.808-.889-.371-1.927-.682-3.098-.919a92.094 92.094 0 0 0-3.097-.578v-3.364h33.168c8.344 0 14.376 1.141 18.081 3.438s5.557 5.676 5.557 10.152c0 2.06-.415 3.883-1.245 5.439-.83 1.571-2.03 2.92-3.571 4.061-1.408 1.067-3.083 1.986-5.039 2.756a44.582 44.582 0 0 1-6.284 1.942v.815c2.238.237 4.565.726 6.966 1.482 2.415.756 4.505 1.749 6.283 2.949h-.014Zm-13.858-18.377c0-3.379-.948-6.017-2.86-7.914-1.912-1.897-4.772-2.846-8.581-2.846-.548 0-1.26.015-2.134.06-.874.044-1.63.074-2.253.103v22.631h2.238c4.654 0 8.077-1.082 10.286-3.246 2.208-2.163 3.319-5.098 3.319-8.803l-.015.015Zm3.009 29.33c0-4.254-1.26-7.514-3.794-9.782-2.519-2.267-6.15-3.409-10.893-3.409-.548 0-1.275.015-2.179.06-.904.044-1.571.074-2 .103v22.364c.252 1.067 1.067 1.957 2.415 2.698 1.349.726 2.979 1.096 4.906 1.096 3.409 0 6.195-1.156 8.329-3.453 2.134-2.297 3.201-5.528 3.201-9.692l.015.015Zm70.634-18.689c0 2.179-.682 4.09-2.016 5.75-1.348 1.645-3.127 2.475-5.335 2.475-2.09 0-3.868-.533-5.321-1.585-1.452-1.053-2.178-2.609-2.178-4.669 0-.993.074-1.778.207-2.341.149-.564.267-1.082.386-1.571-1.542-.178-4.432.266-7.366 1.734-1.512.755-4.135 2.563-5.246 3.986v23.624c0 1.008.163 1.838.474 2.49.311.667.845 1.171 1.586 1.556.637.311 1.659.578 3.082.8 1.423.223 2.446.341 3.083.371v3.142h-28.781v-3.142c.711-.06 1.437-.134 2.178-.237.726-.104 1.349-.238 1.868-.415.918-.312 1.556-.801 1.897-1.468.34-.667.518-1.526.518-2.578v-25.047c0-1.037-.237-1.956-.726-2.771s-1.082-1.467-1.763-1.956c-.519-.341-1.171-.638-1.957-.86a14.646 14.646 0 0 0-2.608-.474v-3.142l20.526-1.112.652.652v6.24h.178c1.986-2.297 5.306-5.024 8.225-6.18 2.401-.949 6.24-1.897 8.641-1.897 2.667 0 5.765.592 7.38 2.237 1.616 1.646 2.431 3.78 2.431 6.388h-.015Zm5.083-6.491c0-.978 3.365-1.586 5.336-1.719 2.697-.163 5.394.148 8.047.518 2.327.326 4.417 1.008 6.284 2.045 1.778 1.008 3.186 2.461 4.239 4.372 1.052 1.912 1.571 4.402 1.571 7.47 0 3.246-.06 7.084-.193 11.53s-.193 7.381-.193 8.774c0 1.289.193 2.312.578 3.053.386.741.978 1.304 1.794 1.675.489.237 1.259.37 2.297.415 1.052.044 2 .059 2.86.059v3.142c-1.26.548-2.742 1.052-4.461 1.511-1.719.46-3.542.682-5.454.682-3.527 0-6.106-.519-7.766-1.571-1.66-1.052-2.786-2.549-3.394-4.49h-.251c-.979.978-1.912 1.808-2.831 2.489a17.024 17.024 0 0 1-2.905 1.764c-1.349.637-2.653 1.112-3.898 1.423-1.245.311-2.993.474-5.231.474-3.335 0-6.18-.978-8.537-2.949-2.356-1.971-3.527-4.58-3.527-7.825 0-1.868.252-3.453.771-4.758a10.84 10.84 0 0 1 2.193-3.468 11.409 11.409 0 0 1 2.994-2.282 30.064 30.064 0 0 1 3.734-1.675c2.594-.948 5.691-1.926 9.308-2.949 3.616-1.023 6.269-1.927 7.929-2.742v-4.135c0-.711-.06-1.659-.178-2.845-.119-1.171-.356-2.164-.727-2.964-.4-.919-1.037-1.69-1.897-2.327-1.141-.83-2.638-1.215-3.971-1.512-2.001-.459-4.506-.622-4.506-1.2l-.015.015Zm11.279 18.925a54.536 54.536 0 0 0-4.802 1.883c-1.586.711-2.875 1.452-3.883 2.223-1.067.8-1.897 1.837-2.505 3.082-.607 1.245-.904 2.727-.904 4.417 0 2.238.504 3.868 1.527 4.876 1.022 1.007 2.282 1.511 3.779 1.511 1.586 0 2.89-.326 3.913-.963a11.253 11.253 0 0 0 2.697-2.401l.178-14.628Zm81.452 23.328h-25.861v-3.142c.548-.06 1.2-.134 1.986-.223.785-.089 1.363-.222 1.763-.429a2.658 2.658 0 0 0 1.29-1.379c.252-.607.385-1.497.385-2.667v-20.141c0-2.92-.533-5.128-1.615-6.61-1.082-1.482-2.668-2.223-4.773-2.223a9.817 9.817 0 0 0-3.216.519c-.993.34-1.956.844-2.904 1.511-.83.578-1.497 1.156-2.001 1.764a39.265 39.265 0 0 0-1.275 1.586v23.105c0 1.007.149 1.837.43 2.519a2.92 2.92 0 0 0 1.423 1.527 8.298 8.298 0 0 0 1.719.681c.682.208 1.364.341 2.016.43v3.142h-26.158v-3.142a38.564 38.564 0 0 0 2.178-.237c.726-.104 1.349-.237 1.868-.415.918-.311 1.556-.8 1.897-1.467.34-.667.518-1.527.518-2.579v-25.017c0-.889-.237-1.763-.681-2.623a6.088 6.088 0 0 0-1.808-2.105c-.519-.34-1.171-.637-1.957-.859a14.646 14.646 0 0 0-2.608-.474v-3.142l20.526-1.112.652.652v6.24h.178c.8-.712 1.778-1.571 2.92-2.579 1.141-1.008 2.208-1.823 3.186-2.46 1.067-.682 2.46-1.275 4.179-1.764 1.72-.489 3.557-.726 5.514-.726 4.683 0 8.18 1.334 10.522 3.987 2.342 2.652 3.512 6.18 3.512 10.567v21.089c0 1.067.163 1.912.475 2.534.311.623.904 1.127 1.763 1.512.46.207 1.023.4 1.705.608.681.207 1.437.34 2.297.429v3.142l-.045-.029Zm28.574 1.363c-3.986 0-7.514-.578-10.567-1.749-3.053-1.156-5.572-2.741-7.558-4.757-1.986-2.03-3.453-4.446-4.431-7.232-.979-2.787-1.468-5.81-1.468-9.085 0-2.979.593-5.825 1.794-8.522 1.185-2.697 2.801-5.069 4.846-7.099 2.09-2.09 4.698-3.764 7.81-5.009 3.113-1.245 6.551-1.868 10.3-1.868 5.277 0 9.456.993 12.524 2.994 3.067 2.001 4.609 4.683 4.609 8.062 0 2.06-.549 3.735-1.63 4.995-1.097 1.26-2.965 1.897-5.632 1.897-2.149 0-3.957-.519-5.395-1.541-1.452-1.038-2.178-2.387-2.178-4.046 0-1.408.237-2.801.681-4.18.46-1.378.727-2.43.815-3.142a3.282 3.282 0 0 0-1.2-1.185c-.489-.267-1.245-.415-2.282-.415-1.29 0-2.475.296-3.528.904-1.067.607-2.045 1.66-2.964 3.186-.889 1.438-1.6 3.364-2.134 5.765-.533 2.416-.8 5.306-.8 8.7 0 5.113 1.2 9.218 3.586 12.345 2.387 3.127 5.262 4.683 8.581 4.683 3.32 0 5.721-.711 7.588-2.134 1.868-1.422 3.557-3.438 5.01-6.046l3.231 2.237a24.823 24.823 0 0 1-3.187 4.802c-1.23 1.453-2.712 2.727-4.431 3.854-1.808 1.17-3.646 2.06-5.513 2.667-1.868.608-4.031.904-6.492.904l.015.015Zm78.178-1.363h-25.862v-3.142c.578-.06 1.245-.134 2.016-.223.77-.089 1.348-.222 1.719-.429a2.632 2.632 0 0 0 1.274-1.379c.252-.607.371-1.497.371-2.667v-20.141c0-2.95-.549-5.158-1.66-6.625-1.112-1.467-2.668-2.193-4.713-2.193a9.727 9.727 0 0 0-3.201.518c-.978.341-1.956.845-2.905 1.512-.83.578-1.497 1.156-2.001 1.764a58.528 58.528 0 0 0-1.274 1.585v23.105c0 1.067.133 1.897.385 2.52.252.622.741 1.126 1.467 1.526.43.252.993.489 1.705.682.711.193 1.378.341 2.045.43v3.142h-26.247v-3.142a48.507 48.507 0 0 0 2.193-.222c.712-.089 1.334-.223 1.883-.43.918-.341 1.556-.845 1.882-1.482.326-.652.504-1.497.504-2.564v-47.959c0-.919-.223-1.897-.652-2.92-.43-1.022-1.038-1.808-1.809-2.326-.578-.371-1.407-.667-2.489-.89a22.75 22.75 0 0 0-2.92-.415v-3.141l21.43-1.112.652.682v29.611h.178c1.082-.978 2.075-1.853 2.949-2.653.875-.785 1.942-1.586 3.202-2.386 1.052-.682 2.445-1.275 4.149-1.764 1.705-.489 3.542-.726 5.528-.726 4.639 0 8.122 1.334 10.464 4.002 2.341 2.667 3.497 6.18 3.497 10.537v21.089c0 1.067.163 1.912.474 2.535.312.637.904 1.126 1.764 1.511.519.237 1.097.43 1.719.608.638.178 1.408.311 2.327.43v3.142h-.044Zm50.226-10.286a27.176 27.176 0 0 1-3.631 4.624 22.147 22.147 0 0 1-4.846 3.72 26.616 26.616 0 0 1-5.825 2.475c-1.971.563-4.224.845-6.773.845-4.238 0-7.914-.608-10.996-1.808-3.083-1.201-5.632-2.831-7.633-4.861-2.015-2.031-3.512-4.446-4.49-7.203-.993-2.771-1.482-5.78-1.482-9.011 0-2.919.533-5.735 1.615-8.418a22.738 22.738 0 0 1 4.579-7.158c1.957-2.03 4.417-3.69 7.381-4.95 2.964-1.26 6.284-1.897 9.959-1.897 4.017 0 7.322.489 9.9 1.467 2.579.978 4.713 2.327 6.418 4.046a14.713 14.713 0 0 1 3.571 5.78c.741 2.223 1.112 4.55 1.112 6.995v2.801H745.26c0 5.884 1.127 10.36 3.394 13.428 2.268 3.067 5.869 4.609 10.804 4.609 2.698 0 5.128-.741 7.277-2.223 2.149-1.482 3.987-3.35 5.513-5.617l3.276 2.371-.03-.015Zm-16.436-16.347c0-1.719-.089-3.482-.252-5.29-.178-1.809-.474-3.291-.904-4.432-.489-1.348-1.156-2.371-2.001-3.053-.844-.682-1.911-1.037-3.201-1.037-2.208 0-3.972 1.111-5.291 3.349-1.319 2.238-2.045 5.78-2.149 10.626l13.813-.177-.015.014Zm40.489 28.085c-2.786 0-5.498-.415-8.151-1.23-2.653-.815-4.713-1.69-6.18-2.608l-1.289 2.919h-3.35l-.563-16.05h3.142c.43 1.289 1.141 2.741 2.149 4.372 1.008 1.615 2.149 3.082 3.438 4.372a19.597 19.597 0 0 0 4.624 3.275 12.029 12.029 0 0 0 5.573 1.334c2.608 0 4.55-.504 5.824-1.527 1.275-1.022 1.912-2.593 1.912-4.713 0-1.141-.282-2.089-.86-2.845-.578-.741-1.363-1.393-2.371-1.942a21.078 21.078 0 0 0-3.675-1.467c-1.334-.4-2.979-.889-4.935-1.467-1.957-.578-3.617-1.156-5.01-1.749-1.393-.593-2.83-1.511-4.327-2.771a12.492 12.492 0 0 1-3.098-4.046c-.77-1.586-1.156-3.453-1.156-5.632 0-4.046 1.705-7.321 5.098-9.811 3.394-2.49 7.855-3.75 13.368-3.75 2.609 0 5.01.267 7.203.801 2.194.533 4.031 1.111 5.528 1.749l.904-2.535h3.276l.681 14.672h-3.008c-1.008-2.978-2.727-5.557-5.158-7.721-2.43-2.164-5.068-3.246-7.869-3.246-2.209 0-3.943.46-5.202 1.379-1.26.919-1.897 2.193-1.897 3.823 0 2.179.918 3.765 2.771 4.728 1.853.978 4.431 1.897 7.751 2.757 5.128 1.319 8.877 3.112 11.249 5.394 2.371 2.283 3.571 5.187 3.571 8.715 0 4.698-1.837 8.343-5.528 10.922-3.69 2.579-8.492 3.868-14.435 3.868v.03Z" />
  <path fill="#D46A5E"
    d="m533.804 548-8.592-25.2 4.992-.048 6.144 18.864-1.104-.096 6.672-14.736h2.976l6.72 14.784-1.296.096 6.192-18.864h4.992l-8.496 25.2h-3.408l-7.008-16.032 1.104.144L537.164 548h-3.36Zm43.256.48c-2.592 0-4.896-.544-6.912-1.632-1.984-1.12-3.552-2.64-4.704-4.56-1.12-1.92-1.68-4.128-1.68-6.624 0-1.984.32-3.792.96-5.424.64-1.632 1.52-3.04 2.64-4.224a11.583 11.583 0 0 1 4.08-2.784c1.6-.672 3.328-1.008 5.184-1.008 1.632 0 3.152.32 4.56.96a10.864 10.864 0 0 1 3.648 2.544c1.056 1.088 1.856 2.384 2.4 3.888.576 1.472.848 3.088.816 4.848l-.048 2.112h-20.592l-1.104-3.936h17.424l-.72.816v-1.152a5.562 5.562 0 0 0-1.056-2.832 6.526 6.526 0 0 0-2.304-1.968 6.485 6.485 0 0 0-3.024-.72c-1.728 0-3.184.336-4.368 1.008-1.184.64-2.08 1.6-2.688 2.88-.608 1.248-.912 2.8-.912 4.656 0 1.76.368 3.296 1.104 4.608.736 1.28 1.776 2.272 3.12 2.976 1.344.704 2.896 1.056 4.656 1.056 1.248 0 2.4-.208 3.456-.624 1.088-.416 2.256-1.168 3.504-2.256l2.496 3.504c-.768.768-1.712 1.44-2.832 2.016A17.778 17.778 0 0 1 580.66 548c-1.216.32-2.416.48-3.6.48Zm29.613 0a10.55 10.55 0 0 1-3.264-.528 12.978 12.978 0 0 1-2.928-1.392 12.083 12.083 0 0 1-2.208-1.968c-.576-.736-.96-1.472-1.152-2.208l1.248-.672v6.144h-4.944V512.48h4.944v16.08l-.768-.432c.16-.736.512-1.44 1.056-2.112.544-.704 1.232-1.328 2.064-1.872a11.185 11.185 0 0 1 2.784-1.344c.992-.352 2-.528 3.024-.528 2.272 0 4.288.56 6.048 1.68 1.76 1.12 3.152 2.672 4.176 4.656 1.024 1.952 1.536 4.192 1.536 6.72 0 2.528-.512 4.784-1.536 6.768-.992 1.984-2.368 3.552-4.128 4.704-1.76 1.12-3.744 1.68-5.952 1.68Zm-.816-4.512c1.472 0 2.784-.368 3.936-1.104 1.152-.768 2.064-1.792 2.736-3.072.672-1.312 1.008-2.8 1.008-4.464 0-1.632-.336-3.088-1.008-4.368-.64-1.312-1.536-2.336-2.688-3.072-1.152-.736-2.48-1.104-3.984-1.104s-2.832.368-3.984 1.104c-1.152.736-2.064 1.76-2.736 3.072-.672 1.28-1.008 2.736-1.008 4.368 0 1.664.336 3.152 1.008 4.464.672 1.28 1.584 2.304 2.736 3.072 1.152.736 2.48 1.104 3.984 1.104Zm26.202 4.512c-2.112 0-4.016-.368-5.712-1.104a10.617 10.617 0 0 1-4.224-3.264l3.36-2.88c.96 1.12 2 1.936 3.12 2.448 1.152.48 2.448.72 3.888.72a6.14 6.14 0 0 0 1.584-.192c.512-.16.944-.384 1.296-.672.384-.288.672-.624.864-1.008.192-.416.288-.864.288-1.344 0-.832-.304-1.504-.912-2.016-.32-.224-.832-.464-1.536-.72-.672-.288-1.552-.576-2.64-.864-1.856-.48-3.376-1.024-4.56-1.632-1.184-.608-2.096-1.296-2.736-2.064a6.186 6.186 0 0 1-1.056-1.968 8.209 8.209 0 0 1-.336-2.4c0-1.056.224-2.016.672-2.88a7.395 7.395 0 0 1 1.92-2.304 8.889 8.889 0 0 1 2.88-1.536 11.779 11.779 0 0 1 3.552-.528c1.184 0 2.352.16 3.504.48 1.184.32 2.272.784 3.264 1.392.992.608 1.824 1.328 2.496 2.16l-2.832 3.12a10.732 10.732 0 0 0-2.016-1.584 9.2 9.2 0 0 0-2.16-1.104c-.736-.256-1.408-.384-2.016-.384-.672 0-1.28.064-1.824.192s-1.008.32-1.392.576a2.622 2.622 0 0 0-.816.96 2.858 2.858 0 0 0-.288 1.296c.032.416.128.816.288 1.2.192.352.448.656.768.912.352.256.88.528 1.584.816.704.288 1.6.56 2.688.816 1.6.416 2.912.88 3.936 1.392 1.056.48 1.888 1.04 2.496 1.68a4.97 4.97 0 0 1 1.344 2.112c.256.8.384 1.696.384 2.688a6.48 6.48 0 0 1-1.248 3.888c-.8 1.12-1.888 2-3.264 2.64-1.376.64-2.912.96-4.608.96Zm15.385-.48v-25.2h4.944V548h-4.944Zm2.4-30.768c-1.056 0-1.872-.272-2.448-.816-.576-.544-.864-1.312-.864-2.304 0-.928.288-1.68.864-2.256.608-.576 1.424-.864 2.448-.864 1.056 0 1.872.272 2.448.816.576.544.864 1.312.864 2.304 0 .928-.304 1.68-.912 2.256-.576.576-1.376.864-2.4.864ZM663.107 548v-31.632h4.944V548h-4.944Zm-5.232-20.4v-4.8h16.032v4.8h-16.032Zm32.06 20.88c-2.592 0-4.896-.544-6.912-1.632-1.984-1.12-3.552-2.64-4.704-4.56-1.12-1.92-1.68-4.128-1.68-6.624 0-1.984.32-3.792.96-5.424.64-1.632 1.52-3.04 2.64-4.224a11.583 11.583 0 0 1 4.08-2.784c1.6-.672 3.328-1.008 5.184-1.008 1.632 0 3.152.32 4.56.96a10.864 10.864 0 0 1 3.648 2.544c1.056 1.088 1.856 2.384 2.4 3.888.576 1.472.848 3.088.816 4.848l-.048 2.112h-20.592l-1.104-3.936h17.424l-.72.816v-1.152a5.562 5.562 0 0 0-1.056-2.832 6.526 6.526 0 0 0-2.304-1.968 6.485 6.485 0 0 0-3.024-.72c-1.728 0-3.184.336-4.368 1.008-1.184.64-2.08 1.6-2.688 2.88-.608 1.248-.912 2.8-.912 4.656 0 1.76.368 3.296 1.104 4.608.736 1.28 1.776 2.272 3.12 2.976 1.344.704 2.896 1.056 4.656 1.056 1.248 0 2.4-.208 3.456-.624 1.088-.416 2.256-1.168 3.504-2.256l2.496 3.504c-.768.768-1.712 1.44-2.832 2.016a17.778 17.778 0 0 1-3.504 1.392c-1.216.32-2.416.48-3.6.48Z" />
</svg>