<svg width="32" height="32" viewBox="0 0 32 32" fill="none" xmlns="http://www.w3.org/2000/svg">
  <path
    d="M24.6415 29.7059L29.6479 26.7813C30.0588 26.5204 30.3537 26.1128 30.4719 25.6424C30.5901 25.172 30.5228 24.6744 30.2837 24.2519L17.7279 1.96124C17.5546 1.63857 17.2874 1.37542 16.9613 1.20619C16.6352 1.03697 16.2654 0.969531 15.9002 1.01271L15.185 1.24984L0.880895 9.70763C0.470015 9.96856 0.17518 10.3761 0.0569487 10.8465C-0.0612827 11.3169 0.00606503 11.8145 0.245159 12.2371L10.1785 29.785H4.21851C3.91567 29.7843 3.62392 29.8983 3.40253 30.1039C3.18114 30.3094 3.04669 30.5911 3.0265 30.8916C3.02256 31.1257 3.08837 31.3557 3.21565 31.5526C3.34293 31.7496 3.52597 31.9046 3.74171 31.9982H10.8937C11.2044 32.0118 11.5134 31.9464 11.7915 31.8081C12.0696 31.6697 12.3076 31.4631 12.4831 31.2078C12.6505 30.9194 12.7386 30.5923 12.7386 30.2593C12.7386 29.9263 12.6505 29.5991 12.4831 29.3107L2.5497 11.4466L10.6553 6.70393L17.8074 19.3511C17.9584 19.62 18.2088 19.8199 18.5055 19.9084C18.8021 19.997 19.1218 19.9672 19.3967 19.8254C19.6535 19.6623 19.8378 19.4076 19.9117 19.1136C19.9856 18.8195 19.9435 18.5086 19.794 18.2445L12.642 5.5973L15.9002 3.46309L28.0586 24.8842L22.0191 28.5203C21.6645 28.7175 21.3861 29.0266 21.2278 29.3988C21.0695 29.7709 21.0403 30.185 21.145 30.5754C21.246 30.9669 21.4701 31.316 21.7846 31.572C22.099 31.8279 22.4875 31.9773 22.8933 31.9982H30.8399C31.0874 32.0084 31.3312 31.9362 31.5327 31.7931C31.7342 31.6499 31.8819 31.4439 31.9525 31.2078C32.0133 31.0001 32.0158 30.7799 31.9598 30.5709C31.9037 30.3619 31.7913 30.1721 31.6346 30.0221C31.4757 29.785 31.1578 29.6269 30.8399 29.6269H24.6415V29.7059Z"
    fill="#FFA665" />
</svg>